<?xml version="1.0" encoding="UTF-8" standalone="no"?>
<!-- Created with Inkscape (http://www.inkscape.org/) -->

<svg
   version="1.1"
   id="svg1"
   width="165.26266"
   height="132.93468"
   viewBox="0 0 165.26266 132.93468"
   sodipodi:docname="Even0.pdf"
   xmlns:inkscape="http://www.inkscape.org/namespaces/inkscape"
   xmlns:sodipodi="http://sodipodi.sourceforge.net/DTD/sodipodi-0.dtd"
   xmlns="http://www.w3.org/2000/svg"
   xmlns:svg="http://www.w3.org/2000/svg">
  <defs
     id="defs1">
    <pattern
       patternTransform="matrix(0.7071,0.7071,-0.7071,0.7071,0,0)"
       patternUnits="userSpaceOnUse"
       x="0"
       y="0"
       width="2.98884"
       height="2.98884"
       id="pattern25">
      <path
         d="M -1.49442,0 1.49442,0"
         style="fill:none;stroke:#bfbfbf;stroke-opacity:1;stroke-width:0.79701;stroke-linecap:butt;stroke-linejoin:miter;stroke-miterlimit:10;stroke-dasharray:none"
         transform="translate(1.49442,1.49442)"
         id="path25" />
    </pattern>
    <pattern
       patternTransform="matrix(0.7071,0.7071,-0.7071,0.7071,0,0)"
       patternUnits="userSpaceOnUse"
       x="0"
       y="0"
       width="2.98884"
       height="2.98884"
       id="pattern28">
      <path
         d="M -1.49442,0 1.49442,0"
         style="fill:none;stroke:#bfbfbf;stroke-opacity:1;stroke-width:0.79701;stroke-linecap:butt;stroke-linejoin:miter;stroke-miterlimit:10;stroke-dasharray:none"
         transform="translate(1.49442,1.49442)"
         id="path28" />
    </pattern>
  </defs>
  <sodipodi:namedview
     id="namedview1"
     pagecolor="#ffffff"
     bordercolor="#000000"
     borderopacity="0.25"
     inkscape:showpageshadow="2"
     inkscape:pageopacity="0.0"
     inkscape:pagecheckerboard="0"
     inkscape:deskcolor="#d1d1d1">
    <inkscape:page
       x="0"
       y="0"
       inkscape:label="1"
       id="page1"
       width="165.26266"
       height="132.93468"
       margin="0"
       bleed="0" />
  </sodipodi:namedview>
  <g
     id="g1"
     inkscape:groupmode="layer"
     inkscape:label="1">
    <path
       id="path1"
       d="M 5.87103,-5.51717 25.08789,-23.57582"
       style="fill:none;stroke:#bfbfbf;stroke-width:0.79701;stroke-linecap:butt;stroke-linejoin:miter;stroke-miterlimit:10;stroke-dasharray:none;stroke-opacity:1"
       transform="matrix(1.3333333,0,0,-1.3333333,7.7386667,26.882667)" />
    <path
       id="path2"
       d="M 5.73871,-53.57388 25.04034,-35.7181"
       style="fill:none;stroke:#bfbfbf;stroke-width:0.79701;stroke-linecap:butt;stroke-linejoin:miter;stroke-miterlimit:10;stroke-dasharray:none;stroke-opacity:1"
       transform="matrix(1.3333333,0,0,-1.3333333,7.7386667,26.882667)" />
    <path
       id="path3"
       d="M 40.47816,-29.67244 H 62.95589"
       style="fill:none;stroke:#ff0000;stroke-width:0.79701;stroke-linecap:butt;stroke-linejoin:miter;stroke-miterlimit:10;stroke-dasharray:2.98883, 2.98883;stroke-dashoffset:0;stroke-opacity:1"
       transform="matrix(1.3333333,0,0,-1.3333333,7.7386667,26.882667)" />
    <path
       id="path4"
       d="M 43.84967,-38.17648 H 56.52045"
       style="fill:none;stroke:#ff0000;stroke-width:0.3985;stroke-linecap:butt;stroke-linejoin:miter;stroke-miterlimit:10;stroke-dasharray:none;stroke-opacity:1"
       transform="matrix(1.3333333,0,0,-1.3333333,7.7386667,26.882667)" />
    <path
       id="path5"
       d="M 4.21463,0 0.64343,1.34572 1.8178,0 0.64343,-1.34572 Z"
       style="fill:#ff0000;fill-opacity:1;fill-rule:nonzero;stroke:#ff0000;stroke-width:0.3985;stroke-linecap:butt;stroke-linejoin:miter;stroke-miterlimit:10;stroke-dasharray:none;stroke-opacity:1"
       transform="matrix(1.3333333,0,0,-1.3333333,80.808347,77.78464)" />
    <path
       id="path6"
       d="m 1.82925,-3.2700312 c 0.023437,-0.070312 0.023437,-0.082031 0.023437,-0.1054688 0,-0.082031 -0.070312,-0.082031 -0.1523437,-0.082031 l -0.609375,0.046875 c -0.09375,0.011719 -0.09375,0.011719 -0.1289063,0.035156 -0.0117188,0.023437 -0.0351563,0.082031 -0.0351563,0.1171875 0,0.082031 0.0820313,0.082031 0.1523437,0.082031 0.011719,0 0.09375,0 0.1757813,0.011719 0.09375,0.011719 0.09375,0.023437 0.09375,0.058594 0,0.011719 0,0.023437 -0.023437,0.1171875 l -0.6914062,2.753906 c -0.0117188,0.0703125 -0.0117188,0.0820313 -0.0117188,0.10546875 0,0.1171875 0.0820313,0.1875 0.1875,0.1875 0.1875,0 0.234375,-0.1875 0.2578125,-0.2578125 L 1.2901875,-1.1137812 c 0.1289063,0 0.75,0.035156 0.75,0.3867187 0,0.0351563 0,0.0585938 -0.011719,0.1171875 -0.011719,0.0703125 -0.011719,0.10546875 -0.011719,0.12890625 0,0.3515625 0.3164063,0.5390625 0.609375,0.5390625 0.5039063,0 0.703125,-0.71484375 0.703125,-0.7734375 0,-0.0703125 -0.082031,-0.0703125 -0.1054687,-0.0703125 -0.082031,0 -0.09375,0.0234375 -0.1171875,0.1171875 -0.046875,0.1640625 -0.1992188,0.55078125 -0.46875,0.55078125 -0.1757813,0 -0.2109375,-0.1875 -0.2109375,-0.29296875 0,0 0,-0.0703125 0.023437,-0.15234375 0.023437,-0.0820313 0.023437,-0.140625 0.023437,-0.17578125 C 2.4737813,-1.172375 1.923,-1.2544062 1.594875,-1.2778437 1.7355,-1.359875 1.9464375,-1.5239375 2.0284688,-1.59425 c 0.28125,-0.2226562 0.5625,-0.4335937 0.84375,-0.4335937 0.1171875,0 0.140625,0.023437 0.1757812,0.058594 -0.011719,0 -0.035156,0.011719 -0.046875,0.011719 -0.2226562,0.082031 -0.2226562,0.28125 -0.2226562,0.2929687 0,0.09375 0.058594,0.2109375 0.2226562,0.2109375 0.09375,0 0.3046875,-0.082031 0.3046875,-0.3515625 0,-0.2460937 -0.1875,-0.3984375 -0.421875,-0.3984375 -0.3398437,0 -0.6328125,0.234375 -0.9960937,0.5273438 C 1.7120625,-1.5356562 1.548,-1.4184687 1.3487813,-1.3364375 Z m 0,0"
       style="fill:#ff0000;fill-opacity:1;fill-rule:nonzero;stroke:none"
       aria-label="k"
       transform="matrix(1.3333333,0,0,1.3333333,44.436,87.750667)" />
    <path
       id="path7"
       d="m 0.49178125,0.78489063 c -0.0234375,0.0820313 -0.0234375,0.10546875 -0.0234375,0.1171875 0,0.11718747 0.09375,0.17578127 0.1875,0.17578127 0.10546875,0 0.2109375,-0.058594 0.2578125,-0.22265627 0.0820313,-0.328125 0.0351563,-0.140625 0.11718745,-0.46875 l 0.1171875,-0.48046875 c 0.1875,0.1171875 0.421875,0.15234375 0.609375,0.15234375 0.3164063,0 0.5742188,-0.15234375 0.796875,-0.375 0.09375,0.3046875 0.421875,0.375 0.5859375,0.375 0.1992188,0 0.3398438,-0.1171875 0.4453125,-0.28125 0.1289063,-0.19921875 0.1992188,-0.45703125 0.1992188,-0.4921875 0,-0.0703125 -0.09375,-0.0703125 -0.1054688,-0.0703125 -0.09375,0 -0.09375,0.0234375 -0.1289062,0.10546875 -0.082031,0.375 -0.2109375,0.5625 -0.3867188,0.5625 -0.140625,0 -0.1992187,-0.10546875 -0.1992187,-0.2578125 0,-0.10546875 0.1523437,-0.71484378 0.3515625,-1.47656248 0.023437,-0.082031 0.023437,-0.09375 0.023437,-0.1171875 0,-0.1171875 -0.09375,-0.1757813 -0.1875,-0.1757813 -0.1992188,0 -0.234375,0.1640625 -0.2695313,0.3164063 -0.058594,0.2109375 -0.058594,0.2226562 -0.1171875,0.421875 -0.046875,0.2109375 -0.1171875,0.48046873 -0.1523437,0.64453123 -0.035156,0.12890625 -0.035156,0.140625 -0.1171875,0.24609375 -0.1640625,0.19921875 -0.3984375,0.3984375 -0.7148438,0.3984375 -0.2695312,0 -0.4804687,-0.10546875 -0.4804687,-0.45703125 0,-0.1171875 0.023437,-0.22265625 0.058594,-0.36328125 0.046875,-0.22265628 0.058594,-0.25781248 0.1054688,-0.44531248 l 0.09375,-0.3398438 c 0.023437,-0.1054687 0.070312,-0.28125 0.070312,-0.3046875 0,-0.082031 -0.070312,-0.1757812 -0.1875,-0.1757812 -0.1992188,0 -0.2460938,0.1875 -0.2578125,0.2460937 z m 0,0"
       style="fill:#ff0000;fill-opacity:1;fill-rule:nonzero;stroke:none"
       aria-label="µ"
       transform="matrix(1.3333333,0,0,1.3333333,49.578667,85.070667)" />
    <path
       id="path8"
       d="m 4.4425078,-1.6997187 c 0.070312,0 0.1875,0 0.1875,-0.140625 0,-0.140625 -0.140625,-0.140625 -0.2109375,-0.140625 H 0.70422656 c -0.0703125,0 -0.22265625,0 -0.22265625,0.140625 0,0.140625 0.12890625,0.140625 0.19921875,0.140625 z m -0.023437,1.1835937 c 0.070312,0 0.2109375,0 0.2109375,-0.140625 0,-0.140625 -0.1171875,-0.140625 -0.1875,-0.140625 H 0.68078906 c -0.0703125,0 -0.19921875,0 -0.19921875,0.140625 0,0.140625 0.15234375,0.140625 0.22265625,0.140625 z M 9.343875,-3.6215937 c 0,0 0.023437,-0.023437 0.023437,-0.046875 0,-0.023437 -0.011719,-0.070312 -0.09375,-0.070312 -0.09375,0 -1.3710938,0.796875 -1.3710938,2.4960937 0,1.6875 1.2773438,2.484375 1.3710938,2.484375 0.082031,0 0.09375,-0.046875 0.09375,-0.070312 0,-0.035156 -0.023437,-0.046875 -0.046875,-0.058594 -0.8789063,-0.70312505 -1.0429688,-1.71093755 -1.0429688,-2.3554688 0,-1.21875 0.5742188,-2.0273437 1.0664068,-2.3789069 z m 0,0"
       style="fill:#ff0000;fill-opacity:1;fill-rule:nonzero;stroke:none"
       aria-label="=("
       transform="matrix(1.3333333,0,0,1.3333333,58.604,87.750667)" />
    <path
       id="path9"
       d="M 1.5572344,-1.7934687 C 1.3111406,-1.6645625 1.1002031,-1.5590937 0.85410938,-1.313 c -0.26953125,0.2695313 -0.38671875,0.5859375 -0.38671875,0.78515625 0,0.45703125 0.53906247,0.6328125 1.10156247,0.6328125 0.328125,0 0.7148438,-0.0703125 1.1484375,-0.328125 0.2578125,-0.140625 0.6679688,-0.45703125 0.6679688,-0.57421875 0,-0.046875 -0.046875,-0.0585938 -0.082031,-0.0585938 -0.1054687,0 -0.2578125,0.09375 -0.328125,0.15234375 -0.1640625,0.15234375 -0.4804687,0.46875 -1.0429687,0.46875 -0.1640625,0 -0.97265627,-0.0351563 -0.97265627,-0.52734375 0,-0.3515624 0.36328127,-0.9140624 1.30078127,-0.9374999 0.09375,0 0.1992187,0 0.3398437,-0.09375 0.023437,-0.023437 0.1523438,-0.1171875 0.1523438,-0.1875 0,-0.058594 -0.046875,-0.058594 -0.1523438,-0.058594 -0.1289065,-0.011718 -1.042969,-0.023437 -1.042969,-0.5390622 0,-0.09375 0.035156,-0.3515625 0.3164062,-0.4804687 0.234375,-0.09375 0.5273438,-0.1054688 0.6445313,-0.1054688 0.09375,0 0.2460937,0.011719 0.3867187,0.035156 0.070312,0.011719 0.2109375,0.046875 0.2109375,0.2109375 0,0.070312 -0.023437,0.1054687 -0.035156,0.1289062 -0.011719,0.011719 -0.023437,0.046875 -0.023437,0.070312 0,0.011719 0,0.058594 0.070312,0.058594 0.1640625,0 0.4921875,-0.1757813 0.4921875,-0.4804688 0,-0.2695312 -0.2460938,-0.375 -0.7382813,-0.375 -1.0078125,0 -1.8164062,0.5859375 -1.8164062,1.171875 0,0.3164063 0.2578125,0.46875 0.4921873,0.5507819 z m 0,0"
       style="fill:#ff0000;fill-opacity:1;fill-rule:nonzero;stroke:none"
       aria-label="E"
       transform="matrix(1.3333333,0,0,1.3333333,71.744,87.750667)" />
    <path
       id="path10"
       d="m 1.3478359,-0.0708125 c 0,0.48046875 -0.2578125,0.75 -0.39843746,0.8671875 -0.046875,0.0351563 -0.0585938,0.046875 -0.0585938,0.0820313 0,0.0234375 0.046875,0.0820313 0.09375,0.0820313 0.0585937,0 0.52734366,-0.38671875 0.52734366,-1.0078125 0,-0.33984375 -0.1523437,-0.5625 -0.375,-0.5625 -0.18749991,0 -0.30468741,0.15234375 -0.30468741,0.3046875 0,0.1640625 0.1171875,0.3046875 0.30468741,0.3046875 0.082031,0 0.1523438,-0.0234375 0.2109376,-0.0703126 z m 0,0"
       style="fill:#ff0000;fill-opacity:1;fill-rule:nonzero;stroke:none"
       aria-label=","
       transform="matrix(1.3333333,0,0,1.3333333,77.378667,87.750667)" />
    <path
       id="path11"
       d="m 2.9892969,-1.59425 c 0,-0.3632812 0,-1.7226562 -1.2890625,-1.7226562 -1.30078128,0 -1.30078128,1.359375 -1.30078128,1.7226562 0,0.3632813 0,1.69921875 1.30078128,1.69921875 1.2890625,0 1.2890625,-1.33593745 1.2890625,-1.69921875 z m -1.2890625,1.53515625 c -0.1875,0 -0.609375,-0.05859375 -0.73828128,-0.5625 -0.0585938,-0.26953125 -0.0703125,-0.62109375 -0.0703125,-1.03124995 0,-0.375 0,-0.7148438 0.0820313,-0.9960938 0.12890618,-0.421875 0.50390618,-0.5039062 0.72656248,-0.5039062 0.3632812,0 0.6210937,0.1875 0.7265626,0.5390625 0.070312,0.2578125 0.070312,0.6679687 0.070312,0.9609375 0,0.3398437 0,0.7382812 -0.070312,1.0429687 -0.1289064,0.48046875 -0.5273439,0.55078125 -0.7265626,0.55078125 z m 0,0"
       style="fill:#ff0000;fill-opacity:1;fill-rule:nonzero;stroke:none"
       aria-label="0"
       transform="matrix(1.3333333,0,0,1.3333333,82.053333,87.750667)" />
    <path
       id="path12"
       d="m 1.3483203,-0.0708125 c 0,0.48046875 -0.2578125,0.75 -0.39843749,0.8671875 -0.046875,0.0351563 -0.0585938,0.046875 -0.0585938,0.0820313 0,0.0234375 0.046875,0.0820313 0.09375,0.0820313 0.0585937,0 0.52734369,-0.38671875 0.52734369,-1.0078125 0,-0.33984375 -0.1523437,-0.5625 -0.375,-0.5625 -0.18749994,0 -0.30468744,0.15234375 -0.30468744,0.3046875 0,0.1640625 0.1171875,0.3046875 0.30468744,0.3046875 0.082031,0 0.1523438,-0.0234375 0.2109376,-0.0703126 z m 0,0"
       style="fill:#ff0000;fill-opacity:1;fill-rule:nonzero;stroke:none"
       aria-label=","
       transform="matrix(1.3333333,0,0,1.3333333,86.573333,87.750667)" />
    <path
       id="path13"
       d="m 2.9878516,-1.59425 c 0,-0.3632812 0,-1.7226562 -1.2890625,-1.7226562 -1.30078129,0 -1.30078129,1.359375 -1.30078129,1.7226562 0,0.3632813 0,1.69921875 1.30078129,1.69921875 1.2890625,0 1.2890625,-1.33593745 1.2890625,-1.69921875 z m -1.2890625,1.53515625 c -0.1875,0 -0.609375,-0.05859375 -0.73828129,-0.5625 -0.0585938,-0.26953125 -0.0703125,-0.62109375 -0.0703125,-1.03124995 0,-0.375 0,-0.7148438 0.0820313,-0.9960938 0.12890619,-0.421875 0.50390619,-0.5039062 0.72656259,-0.5039062 0.3632812,0 0.6210937,0.1875 0.7265625,0.5390625 0.070312,0.2578125 0.070312,0.6679687 0.070312,0.9609375 0,0.3398437 0,0.7382812 -0.070312,1.0429687 -0.1289063,0.48046875 -0.5273439,0.55078125 -0.7265626,0.55078125 z m 0,0"
       style="fill:#ff0000;fill-opacity:1;fill-rule:nonzero;stroke:none"
       aria-label="0"
       transform="matrix(1.3333333,0,0,1.3333333,91.246667,87.750667)" />
    <path
       id="path14"
       d="m 1.346875,-0.0708125 c 0,0.48046875 -0.2578125,0.75 -0.3984375,0.8671875 -0.046875,0.0351563 -0.0585938,0.046875 -0.0585938,0.0820313 0,0.0234375 0.046875,0.0820313 0.09375,0.0820313 0.0585938,0 0.5273438,-0.38671875 0.5273438,-1.0078125 0,-0.33984375 -0.1523438,-0.5625 -0.375,-0.5625 -0.18750005,0 -0.30468755,0.15234375 -0.30468755,0.3046875 0,0.1640625 0.1171875,0.3046875 0.30468755,0.3046875 0.082031,0 0.1523437,-0.0234375 0.2109375,-0.0703126 z m 2.859375,0.65625 C 4.171094,0.71434375 4.159375,0.73778125 3.9367188,0.73778125 c -0.070312,0 -0.1640625,0 -0.1640625,0.140625 0,0.0585938 0.046875,0.0820313 0.082031,0.0820313 0.082031,0 0.1640625,-0.0117188 0.2460938,-0.0117188 0.082031,0 0.1640625,0 0.2460937,0 0.1054688,0 0.1992188,0 0.2929688,0 0.09375,0 0.1875,0.0117188 0.28125,0.0117188 0.058594,0 0.1171875,-0.0351563 0.1171875,-0.12890625 0,-0.09375 -0.082031,-0.09375 -0.1523438,-0.09375 -0.1640625,0 -0.2695312,0 -0.2695312,-0.0585938 0,-0.0234375 0.082031,-0.328125 0.2226562,-0.92578125 0.1289063,0.17578125 0.328125,0.3046875 0.5976563,0.3046875 0.703125,0 1.40625,-0.69140625 1.40625,-1.39453125 0,-0.4921875 -0.3632813,-0.8671875 -0.8789063,-0.8671875 -0.3867187,0 -0.6914062,0.2578125 -0.7851562,0.3515625 C 5.0734375,-2.1215937 4.7804688,-2.203625 4.5929688,-2.203625 c -0.1640625,0 -0.3164063,0.082031 -0.4453125,0.28125 -0.1289063,0.1992188 -0.1875,0.4570313 -0.1875,0.4921875 0,0.070312 0.070313,0.070312 0.1054687,0.070312 0.082031,0 0.09375,-0.023437 0.1054688,-0.1054687 0.058594,-0.1992188 0.1640625,-0.5625 0.3984375,-0.5625 0.1757812,0 0.1992187,0.1640625 0.1992187,0.2578125 0,0.070312 0,0.09375 -0.011719,0.1289062 z m 0.9492188,-2.0742187 c 0.011719,-0.070312 0.023437,-0.082031 0.1054687,-0.1875 0.1992188,-0.2226563 0.4570313,-0.3515625 0.6914063,-0.3515625 0.2109375,0 0.4453125,0.1289062 0.4453125,0.5039062 0,0.2226563 -0.1171875,0.69140625 -0.2578125,0.9375 -0.2109375,0.36328125 -0.515625,0.46875 -0.703125,0.46875 -0.4101563,0 -0.515625,-0.3984375 -0.515625,-0.4453125 0,-0.0234375 0.011719,-0.046875 0.011719,-0.0703125 z m 0,0"
       style="fill:#ff0000;fill-opacity:1;fill-rule:nonzero;stroke:none"
       aria-label=",p"
       transform="matrix(1.3333333,0,0,1.3333333,95.766667,87.750667)" />
    <path
       id="path15"
       d="m 1.9439844,-1.2426875 c 0,-1.6875 -1.27734377,-2.4960937 -1.38281252,-2.4960937 -0.0703125,0 -0.0703125,0.058594 -0.0703125,0.070312 0,0.011719 0,0.035156 0.0234375,0.070312 0.75000002,0.5859375 1.04296872,1.453125 1.04296872,2.3554687 0,0.4453125 -0.082031,0.9140625 -0.2460937,1.32421875 -0.2460938,0.5625 -0.55078127,0.84375 -0.79687502,1.04296875 -0.0117188,0 -0.0234375,0.035156 -0.0234375,0.046875 0,0.011719 0,0.070312 0.0703125,0.070312 0.10546875,0 1.38281252,-0.796875 1.38281252,-2.484375 z m 0,0"
       style="fill:#ff0000;fill-opacity:1;fill-rule:nonzero;stroke:none"
       aria-label=")"
       transform="matrix(1.3333333,0,0,1.3333333,105.35333,87.750667)" />
    <path
       id="path16"
       d="m 4.1600156,-4.2314922 c 0.070312,-0.234375 0.070312,-0.28125 0.4570313,-0.28125 0.09375,0 0.1875,0 0.1875,-0.140625 0,-0.082031 -0.058594,-0.1054687 -0.1054688,-0.1054687 -0.1640625,0 -0.5859375,0.023437 -0.75,0.023437 -0.1523437,0 -0.3867187,-0.011719 -0.5390625,-0.011719 -0.1757812,0 -0.375,-0.011719 -0.5507812,-0.011719 -0.046875,0 -0.1523438,0 -0.1523438,0.140625 0,0.1054687 0.058594,0.1054687 0.2695313,0.1054687 0.1640625,0 0.1875,0 0.3632812,0.011719 0.1992188,0.023437 0.2226563,0.046875 0.2226563,0.1289062 0,0.046875 0,0.058594 -0.023437,0.1640625 l -0.8085938,3.1875 c -0.1289062,0.52734376 -0.5742187,0.96093751 -1.03125,0.96093751 -0.09375,0 -0.5390625,-0.0234375 -0.6914062,-0.36328125 0.3984375,0 0.4921875,-0.328125 0.4921875,-0.4453125 0,-0.19921876 -0.1640625,-0.30468746 -0.3164063,-0.30468746 -0.19921873,0 -0.46874998,0.1523437 -0.46874998,0.53906246 0,0.45703125 0.42187498,0.7734375 1.00781248,0.7734375 0.6796875,0 1.453125,-0.4453125 1.6289063,-1.13671875 z m 0,0"
       style="fill:#ff0000;fill-opacity:1;fill-rule:nonzero;stroke:none"
       aria-label="J"
       transform="matrix(1.3333333,0,0,1.3333333,56.008,45.169333)" />
    <path
       id="path17"
       d="m 2.0159141,-1.5126016 h 1.0898437 c 0.7617188,0 1.6640625,-0.46875 1.6640625,-1.078125 0,-0.46875 -0.515625,-0.8085937 -1.2421875,-0.8085937 h -1.96875 c -0.09375,0 -0.1640625,0 -0.1640625,0.140625 0,0.082031 0.058594,0.082031 0.1757813,0.082031 0.058594,0 0.2226562,0 0.328125,0.023437 0,0.058594 0,0.070312 -0.023437,0.1289063 l -0.6445313,2.61328124 c -0.046875,0.140625 -0.046875,0.1875 -0.43359374,0.1875 -0.12890625,0 -0.19921875,0 -0.19921875,0.140625 0,0.03515625 0.0351563,0.0820312475 0.0820313,0.0820312475 0.10546875,0 0.22265625,-0.0117187475 0.33984379,-0.0117187475 0.1171875,0 0.2460937,-0.01171875 0.3632812,-0.01171875 0.1289063,0 0.2460938,0.01171875 0.375,0.01171875 0.1054688,0 0.234375,0.0117187475 0.3398438,0.0117187475 0.035156,0 0.1289063,0 0.1289063,-0.1406249975 0,-0.0820313 -0.070312,-0.0820313 -0.1640625,-0.0820313 -0.011719,0 -0.1289063,0 -0.2109376,-0.0117188 -0.1289062,-0.0117188 -0.1289062,-0.0117188 -0.1289062,-0.0585938 0,-0.0117188 0,-0.0117188 0.011719,-0.0703125 z m 0.3632812,-1.5 c 0.035156,-0.1523437 0.035156,-0.1640625 0.2460938,-0.1640625 h 0.7382812 c 0.5039063,0 0.8554688,0.1289063 0.8554688,0.515625 0,0.140625 -0.070312,0.5273438 -0.3632813,0.7382813 -0.28125,0.1992187 -0.6679687,0.2226562 -0.8671875,0.2226562 h -0.9375 z m 0,0"
       style="fill:#ff0000;fill-opacity:1;fill-rule:nonzero;stroke:none"
       aria-label="P"
       transform="matrix(1.3333333,0,0,1.3333333,62.761333,41.161333)" />
    <path
       id="path18"
       d="m 5.3540156,-2.3447734 c 0.1054688,0 0.2695313,0 0.2695313,-0.1757813 0,-0.1640625 -0.1757813,-0.1640625 -0.2578125,-0.1640625 H 0.74854688 c -0.09375,0 -0.2578125,0 -0.2578125,0.1640625 0,0.1757813 0.15234375,0.1757813 0.2578125,0.1757813 z m 0.011719,1.53515621 c 0.082031,0 0.2578125,0 0.2578125,-0.1640625 0,-0.17578121 -0.1640625,-0.17578121 -0.2695313,-0.17578121 H 0.74854688 c -0.10546875,0 -0.2578125,0 -0.2578125,0.17578121 0,0.1640625 0.1640625,0.1640625 0.2578125,0.1640625 z M 11.980969,-2.2275859 c 0,-0.7617188 -0.09375,-1.3125 -0.410156,-1.8046875 -0.222657,-0.3164063 -0.644532,-0.5976563 -1.207032,-0.5976563 -1.6171872,0 -1.6171872,1.8984375 -1.6171872,2.4023438 0,0.5039062 0,2.36718746 1.6171872,2.36718746 1.617188,0 1.617188,-1.86328126 1.617188,-2.36718746 z m -1.617188,2.16796871 c -0.316406,0 -0.7499997,-0.1875 -0.8906247,-0.76171875 -0.09375,-0.41015626 -0.09375,-0.98437496 -0.09375,-1.49999996 0,-0.5039063 0,-1.03125 0.1054687,-1.4179688 0.1523438,-0.5507812 0.597656,-0.6914062 0.878906,-0.6914062 0.375,0 0.738282,0.2226562 0.867188,0.6328125 0.105469,0.375 0.117187,0.8789062 0.117187,1.4765625 0,0.515625 0,1.0429687 -0.09375,1.47656246 -0.140625,0.6328125 -0.609375,0.78515625 -0.890625,0.78515625 z m 0,0"
       style="fill:#ff0000;fill-opacity:1;fill-rule:nonzero;stroke:none"
       aria-label="=0"
       transform="matrix(1.3333333,0,0,1.3333333,73.416,45.169333)" />
    <path
       id="path19"
       d="m 2.6962812,-1.1024453 h 1.734375 c 0.070312,0 0.1992188,0 0.1992188,-0.140625 0,-0.140625 -0.1289063,-0.140625 -0.1992188,-0.140625 h -1.734375 v -1.734375 c 0,-0.070312 0,-0.1992188 -0.140625,-0.1992188 -0.1289062,0 -0.1289062,0.1289063 -0.1289062,0.1992188 v 1.734375 H 0.68065625 c -0.0585938,0 -0.19921875,0 -0.19921875,0.140625 0,0.140625 0.140625,0.140625 0.19921875,0.140625 H 2.42675 v 1.73437499 c 0,0.0703125 0,0.19921875 0.1289062,0.19921875 0.140625,0 0.140625,-0.12890625 0.140625,-0.19921875 z m 0,0"
       style="fill:#ff0000;fill-opacity:1;fill-rule:nonzero;stroke:none"
       aria-label="+"
       transform="matrix(1.3333333,0,0,1.3333333,89.889333,41.161333)" />
    <path
       id="path20"
       d="m 75.30414,-37.8836 11.6624,-27.79247"
       style="fill:none;stroke:#bfbfbf;stroke-width:0.79701;stroke-linecap:butt;stroke-linejoin:miter;stroke-miterlimit:10;stroke-dasharray:none;stroke-opacity:1"
       transform="matrix(1.3333333,0,0,-1.3333333,7.7386667,26.882667)" />
    <path
       id="path21"
       d="m 80.76112,-29.65303 25.84038,0.05635"
       style="fill:none;stroke:#bfbfbf;stroke-width:0.79701;stroke-linecap:butt;stroke-linejoin:miter;stroke-miterlimit:10;stroke-dasharray:none;stroke-opacity:1"
       transform="matrix(1.3333333,0,0,-1.3333333,7.7386667,26.882667)" />
    <path
       id="path22"
       d="M 75.31682,-21.46661 87.01811,6.29808"
       style="fill:none;stroke:#bfbfbf;stroke-width:0.79701;stroke-linecap:butt;stroke-linejoin:miter;stroke-miterlimit:10;stroke-dasharray:none;stroke-opacity:1"
       transform="matrix(1.3333333,0,0,-1.3333333,7.7386667,26.882667)" />
    <path
       id="path23"
       d="m 4.1378203,-5.6827891 c 0,-0.5742187 -0.3984375,-1.3359375 -1.8867187,-1.3359375 -1.078125,0 -1.68750004,0.6796875 -1.68750004,1.3242188 0,0.3398437 0.22265625,0.4804687 0.45703124,0.4804687 0.28125,0 0.4570313,-0.1992187 0.4570313,-0.46875 0,-0.4453125 -0.421875,-0.4453125 -0.56250004,-0.4453125 0.31640624,-0.5273437 0.89062504,-0.6796875 1.31250004,-0.6796875 1.078125,0 1.078125,0.6796875 1.078125,1.0664063 0,0.5976562 -0.1523438,0.7734375 -0.3398438,0.9492187 -0.65625,0.7148438 -0.8671875,1.640625 -0.8671875,2.2382813 v 0.4570312 c 0,0.1757813 0,0.234375 0.1171875,0.234375 0.1289063,0 0.1289063,-0.09375 0.1289063,-0.2695312 v -0.3515625 c 0,-1.2539063 0.9609375,-1.9570313 1.3125,-2.2148438 0.2695312,-0.1992187 0.4804687,-0.5625 0.4804687,-0.984375 z m -1.3945312,5.15625004 c 0,-0.29296875 -0.2460938,-0.52734374 -0.5273438,-0.52734374 -0.2929687,0 -0.5273437,0.23437499 -0.5273437,0.52734374 0,0.29296875 0.234375,0.5273437475 0.5273437,0.5273437475 0.28125,0 0.5273438,-0.2343749975 0.5273438,-0.5273437475 z m 0,0"
       style="fill:#bfbfbf;fill-opacity:1;fill-rule:nonzero;stroke:none"
       aria-label="?"
       transform="matrix(1.3333333,0,0,1.3333333,4.604,31.565333)" />
    <path
       id="path24"
       d="M 8.50412,0 C 8.50412,4.69675 4.69675,8.50412 0,8.50412 -4.69675,8.50412 -8.50412,4.69675 -8.50412,0 c 0,-4.69675 3.80737,-8.50412 8.50412,-8.50412 4.69675,0 8.50412,3.80737 8.50412,8.50412 z"
       style="fill:url(#pattern25);fill-opacity:1;fill-rule:nonzero;stroke:#bfbfbf;stroke-width:0.79701;stroke-linecap:butt;stroke-linejoin:miter;stroke-miterlimit:10;stroke-dasharray:none;stroke-opacity:1"
       transform="matrix(1.3333333,0,0,-1.3333333,49.838667,66.445333)" />
    <path
       id="path26"
       d="m 4.1379844,-5.6828828 c 0,-0.5742188 -0.3984375,-1.3359375 -1.8867188,-1.3359375 -1.078125,0 -1.68749997,0.6796875 -1.68749997,1.3242187 0,0.3398438 0.22265625,0.4804688 0.45703127,0.4804688 0.28125,0 0.4570312,-0.1992188 0.4570312,-0.46875 0,-0.4453125 -0.421875,-0.4453125 -0.56249997,-0.4453125 0.31640627,-0.5273438 0.89062497,-0.6796875 1.31249997,-0.6796875 1.078125,0 1.078125,0.6796875 1.078125,1.0664062 0,0.5976563 -0.1523437,0.7734375 -0.3398437,0.9492188 -0.65625,0.7148437 -0.8671875,1.640625 -0.8671875,2.2382812 v 0.4570313 c 0,0.1757812 0,0.234375 0.1171875,0.234375 0.1289062,0 0.1289062,-0.09375 0.1289062,-0.2695313 v -0.3515625 c 0,-1.2539062 0.9609375,-1.9570312 1.3125,-2.2148437 0.2695313,-0.1992188 0.4804688,-0.5625 0.4804688,-0.984375 z m -1.3945313,5.15624999 c 0,-0.29296875 -0.2460937,-0.52734379 -0.5273437,-0.52734379 -0.2929688,0 -0.5273438,0.23437504 -0.5273438,0.52734379 0,0.29296875 0.234375,0.5273437475 0.5273438,0.5273437475 0.28125,0 0.5273437,-0.2343749975 0.5273437,-0.5273437475 z m 0,0"
       style="fill:#bfbfbf;fill-opacity:1;fill-rule:nonzero;stroke:none"
       aria-label="?"
       transform="matrix(1.3333333,0,0,1.3333333,4.428,110.23733)" />
    <path
       id="path27"
       d="M 8.50412,0 C 8.50412,4.69675 4.69675,8.50412 0,8.50412 -4.69675,8.50412 -8.50412,4.69675 -8.50412,0 c 0,-4.69675 3.80737,-8.50412 8.50412,-8.50412 4.69675,0 8.50412,3.80737 8.50412,8.50412 z"
       style="fill:url(#pattern28);fill-opacity:1;fill-rule:nonzero;stroke:#bfbfbf;stroke-width:0.79701;stroke-linecap:butt;stroke-linejoin:miter;stroke-miterlimit:10;stroke-dasharray:none;stroke-opacity:1"
       transform="matrix(1.3333333,0,0,-1.3333333,103.54933,66.445333)" />
    <path
       id="path29"
       d="m 4.1368594,-5.6827344 c 0,-0.5742187 -0.3984375,-1.3359375 -1.8867188,-1.3359375 -1.078125,0 -1.68749997,0.6796875 -1.68749997,1.3242188 0,0.3398437 0.22265625,0.4804687 0.45703127,0.4804687 0.28125,0 0.4570312,-0.1992187 0.4570312,-0.46875 0,-0.4453125 -0.421875,-0.4453125 -0.56249997,-0.4453125 0.31640627,-0.5273437 0.89062497,-0.6796875 1.31249997,-0.6796875 1.078125,0 1.078125,0.6796875 1.078125,1.0664063 0,0.5976562 -0.1523437,0.7734375 -0.3398437,0.9492187 -0.65625,0.7148438 -0.8671875,1.640625 -0.8671875,2.2382813 v 0.4570312 c 0,0.1757813 0,0.234375 0.1171875,0.234375 0.1289062,0 0.1289062,-0.09375 0.1289062,-0.2695312 v -0.3515625 c 0,-1.2539063 0.9609375,-1.9570313 1.3125,-2.2148438 0.2695313,-0.1992187 0.4804688,-0.5625 0.4804688,-0.984375 z m -1.3945313,5.15625003 c 0,-0.29296875 -0.2460937,-0.52734373 -0.5273437,-0.52734373 -0.2929688,0 -0.5273438,0.23437498 -0.5273438,0.52734373 0,0.29296875 0.234375,0.527343745 0.5273438,0.527343745 0.28125,0 0.5273437,-0.234374995 0.5273437,-0.527343745 z m 0,0"
       style="fill:#bfbfbf;fill-opacity:1;fill-rule:nonzero;stroke:none"
       aria-label="?"
       transform="matrix(1.3333333,0,0,1.3333333,124.492,128.50667)" />
    <path
       id="path30"
       d="m 4.1375234,-5.6847344 c 0,-0.5742187 -0.3984375,-1.3359375 -1.8867187,-1.3359375 -1.078125,0 -1.68750001,0.6796875 -1.68750001,1.3242188 0,0.3398437 0.22265625,0.4804687 0.45703121,0.4804687 0.28125,0 0.4570313,-0.1992187 0.4570313,-0.46875 0,-0.4453125 -0.421875,-0.4453125 -0.56250001,-0.4453125 0.31640621,-0.5273437 0.89062501,-0.6796875 1.31250001,-0.6796875 1.078125,0 1.078125,0.6796875 1.078125,1.0664063 0,0.5976562 -0.1523438,0.7734375 -0.3398438,0.9492187 -0.65625,0.7148438 -0.8671875,1.640625 -0.8671875,2.2382813 v 0.4570312 c 0,0.1757813 0,0.234375 0.1171875,0.234375 0.1289063,0 0.1289063,-0.09375 0.1289063,-0.2695312 v -0.3515625 c 0,-1.2539063 0.9609375,-1.9570313 1.3125,-2.2148438 0.2695312,-0.1992187 0.4804687,-0.5625 0.4804687,-0.984375 z m -1.3945312,5.15625003 c 0,-0.29296875 -0.2460938,-0.52734373 -0.5273438,-0.52734373 -0.2929687,0 -0.5273437,0.23437498 -0.5273437,0.52734373 0,0.29296875 0.234375,0.52734375 0.5273437,0.52734375 0.28125,0 0.5273438,-0.234375 0.5273438,-0.52734375 z m 0,0"
       style="fill:#bfbfbf;fill-opacity:1;fill-rule:nonzero;stroke:none"
       aria-label="?"
       transform="matrix(1.3333333,0,0,1.3333333,154.56533,71.009333)" />
    <path
       id="path31"
       d="m 4.1373125,-5.6828672 c 0,-0.5742187 -0.3984375,-1.3359375 -1.8867187,-1.3359375 -1.078125,0 -1.68750005,0.6796875 -1.68750005,1.3242188 0,0.3398437 0.22265625,0.4804687 0.45703125,0.4804687 0.28125,0 0.4570313,-0.1992187 0.4570313,-0.46875 0,-0.4453125 -0.421875,-0.4453125 -0.56250005,-0.4453125 0.31640625,-0.5273437 0.89062505,-0.6796875 1.31250005,-0.6796875 1.078125,0 1.078125,0.6796875 1.078125,1.0664063 0,0.5976562 -0.1523438,0.7734375 -0.3398438,0.9492187 -0.65625,0.7148438 -0.8671875,1.640625 -0.8671875,2.2382813 v 0.4570312 c 0,0.1757813 0,0.234375 0.1171875,0.234375 0.1289063,0 0.1289063,-0.09375 0.1289063,-0.2695312 v -0.3515625 c 0,-1.2539063 0.9609375,-1.9570313 1.3125,-2.2148438 0.2695312,-0.1992187 0.4804687,-0.5625 0.4804687,-0.984375 z m -1.3945312,5.15625001 c 0,-0.29296875 -0.2460938,-0.52734371 -0.5273438,-0.52734371 -0.2929687,0 -0.5273437,0.23437496 -0.5273437,0.52734371 0,0.29296875 0.234375,0.5273437525 0.5273437,0.5273437525 0.28125,0 0.5273438,-0.2343750025 0.5273438,-0.5273437525 z m 0,0"
       style="fill:#bfbfbf;fill-opacity:1;fill-rule:nonzero;stroke:none"
       aria-label="?"
       transform="matrix(1.3333333,0,0,1.3333333,124.57733,13.792)" />
  </g>
</svg>
