<?xml version="1.0" standalone="no"?>
<!DOCTYPE svg PUBLIC "-//W3C//DTD SVG 20010904//EN"
 "http://www.w3.org/TR/2001/REC-SVG-20010904/DTD/svg10.dtd">
<svg version="1.0" xmlns="http://www.w3.org/2000/svg"
 width="124.000000pt" height="100.000000pt" viewBox="0 0 124.000000 100.000000"
 preserveAspectRatio="xMidYMid meet">
<metadata>
Created by potrace 1.16, written by Peter Selinger 2001-2019
</metadata>
<g transform="translate(0.000000,100.000000) scale(0.100000,-0.100000)"
fill="#000000" stroke="none">
<path d="M480 716 c0 -9 -7 -12 -20 -9 -15 4 -19 2 -15 -10 4 -8 -1 -17 -10
-21 -9 -3 -14 -10 -10 -15 9 -16 35 -1 35 21 0 10 5 16 10 13 16 -10 50 5 50
21 0 8 -9 14 -20 14 -11 0 -20 -6 -20 -14z"/>
<path d="M687 717 c-2 -6 -16 -11 -31 -9 -24 2 -27 -1 -24 -26 4 -33 32 -37
36 -4 3 22 17 30 24 13 2 -5 8 -4 14 3 8 8 7 15 -2 24 -10 9 -13 9 -17 -1z
m-27 -37 c0 -5 -4 -10 -10 -10 -5 0 -10 5 -10 10 0 6 5 10 10 10 6 0 10 -4 10
-10z"/>
<path d="M550 675 c0 -10 10 -15 30 -15 20 0 30 5 30 15 0 10 -10 15 -30 15
-20 0 -30 -5 -30 -15z"/>
<path d="M460 500 c0 -5 9 -10 20 -10 11 0 20 5 20 10 0 6 -9 10 -20 10 -11 0
-20 -4 -20 -10z"/>
<path d="M520 500 c0 -5 9 -10 20 -10 11 0 20 5 20 10 0 6 -9 10 -20 10 -11 0
-20 -4 -20 -10z"/>
<path d="M580 500 c0 -5 9 -10 20 -10 11 0 20 5 20 10 0 6 -9 10 -20 10 -11 0
-20 -4 -20 -10z"/>
<path d="M640 500 c0 -5 9 -10 20 -10 11 0 20 5 20 10 0 6 -9 10 -20 10 -11 0
-20 -4 -20 -10z"/>
<path d="M600 430 c0 -5 -26 -11 -57 -12 l-58 -2 55 -3 c30 -3 57 -9 61 -14 3
-6 16 -6 35 1 l29 12 -25 13 c-30 17 -40 18 -40 5z"/>
<path d="M380 377 c0 -5 -9 -7 -19 -4 -17 4 -31 -9 -31 -29 0 -8 26 -4 53 9
29 13 36 34 12 34 -8 0 -15 -5 -15 -10z"/>
<path d="M516 363 c-4 -9 -1 -22 6 -29 11 -11 13 -8 13 16 0 33 -9 39 -19 13z"/>
<path d="M546 364 c-8 -22 -9 -21 24 -26 17 -3 30 -1 30 4 0 4 -6 8 -14 8 -8
0 -18 5 -22 12 -4 7 -3 8 4 4 7 -4 12 -2 12 3 0 17 -27 13 -34 -5z"/>
<path d="M627 373 c-15 -14 -6 -31 18 -35 14 -3 25 -1 25 3 0 5 -4 9 -10 9 -5
0 -10 7 -10 15 0 16 -12 20 -23 8z"/>
<path d="M687 373 c-13 -12 -7 -33 8 -33 8 0 15 9 15 20 0 20 -11 26 -23 13z"/>
<path d="M794 350 c-1 -16 3 -27 7 -24 11 6 12 54 2 54 -5 0 -8 -13 -9 -30z"/>
<path d="M753 350 c1 -22 5 -24 26 -11 16 10 6 31 -14 31 -8 0 -13 -9 -12 -20z"/>
<path d="M440 350 c0 -5 11 -10 25 -10 14 0 25 5 25 10 0 6 -11 10 -25 10 -14
0 -25 -4 -25 -10z"/>
<path d="M725 340 c3 -5 8 -10 11 -10 2 0 4 5 4 10 0 6 -5 10 -11 10 -5 0 -7
-4 -4 -10z"/>
</g>
</svg>
