<?xml version="1.0" encoding="UTF-8" standalone="no"?>
<!-- Created with Inkscape (http://www.inkscape.org/) -->

<svg
   version="1.1"
   id="svg1"
   width="157.33333"
   height="125.33333"
   viewBox="0 0 157.33333 125.33333"
   sodipodi:docname="Quadratic.eps"
   xmlns:inkscape="http://www.inkscape.org/namespaces/inkscape"
   xmlns:sodipodi="http://sodipodi.sourceforge.net/DTD/sodipodi-0.dtd"
   xmlns="http://www.w3.org/2000/svg"
   xmlns:svg="http://www.w3.org/2000/svg">
  <defs
     id="defs1">
    <pattern
       patternTransform="matrix(0.007071,0.007071,-0.007071,0.007071,34.4141,47.2)"
       patternUnits="userSpaceOnUse"
       x="0"
       y="0"
       width="299"
       height="299"
       id="pattern20">
      <path
         d="m 0,1494.41 2988.83,0"
         style="fill:none;stroke:#bfbfbf;stroke-opacity:1;stroke-width:797.01;stroke-linecap:butt;stroke-linejoin:miter;stroke-miterlimit:10;stroke-dasharray:none"
         transform="scale(0.1)"
         id="path20" />
    </pattern>
    <pattern
       patternTransform="matrix(0.007071,0.007071,-0.007071,0.007071,74.6141,47.2)"
       patternUnits="userSpaceOnUse"
       x="0"
       y="0"
       width="299"
       height="299"
       id="pattern23">
      <path
         d="m 0,1494.41 2988.83,0"
         style="fill:none;stroke:#bfbfbf;stroke-opacity:1;stroke-width:797.01;stroke-linecap:butt;stroke-linejoin:miter;stroke-miterlimit:10;stroke-dasharray:none"
         transform="scale(0.1)"
         id="path23" />
    </pattern>
  </defs>
  <sodipodi:namedview
     id="namedview1"
     pagecolor="#ffffff"
     bordercolor="#000000"
     borderopacity="0.25"
     inkscape:showpageshadow="2"
     inkscape:pageopacity="0.0"
     inkscape:pagecheckerboard="0"
     inkscape:deskcolor="#d1d1d1">
    <inkscape:page
       x="0"
       y="0"
       inkscape:label="1"
       id="page1"
       width="157.33333"
       height="125.33333"
       margin="0"
       bleed="0" />
  </sodipodi:namedview>
  <g
     id="g1"
     inkscape:groupmode="layer"
     inkscape:label="1">
    <path
       id="path1"
       d="M 86.7617,713.199 278.91,532.621"
       style="fill:none;stroke:#bfbfbf;stroke-width:7.9701;stroke-linecap:butt;stroke-linejoin:miter;stroke-miterlimit:10;stroke-dasharray:none;stroke-opacity:1"
       transform="matrix(0.13333333,0,0,-0.13333333,0,125.33333)" />
    <path
       id="path2"
       d="M 85.4297,232.66 278.441,411.211"
       style="fill:none;stroke:#bfbfbf;stroke-width:7.9701;stroke-linecap:butt;stroke-linejoin:miter;stroke-miterlimit:10;stroke-dasharray:none;stroke-opacity:1"
       transform="matrix(0.13333333,0,0,-0.13333333,0,125.33333)" />
    <path
       id="path3"
       d="M 432.809,471.641 H 657.621"
       style="fill:none;stroke:#000000;stroke-width:7.9701;stroke-linecap:butt;stroke-linejoin:miter;stroke-miterlimit:10;stroke-dasharray:none;stroke-opacity:1"
       transform="matrix(0.13333333,0,0,-0.13333333,0,125.33333)" />
    <path
       id="path4"
       d="M 466.52,556.68 H 593.238"
       style="fill:none;stroke:#000000;stroke-width:3.985;stroke-linecap:butt;stroke-linejoin:miter;stroke-miterlimit:10;stroke-dasharray:none;stroke-opacity:1"
       transform="matrix(0.13333333,0,0,-0.13333333,0,125.33333)" />
    <path
       id="path5"
       d="M 618.199,556.68 582.5,570.16 594.262,556.68 582.5,543.238 Z"
       style="fill:#000000;fill-opacity:1;fill-rule:nonzero;stroke:#000000;stroke-width:3.985;stroke-linecap:butt;stroke-linejoin:miter;stroke-miterlimit:10;stroke-dasharray:none;stroke-opacity:1"
       transform="matrix(0.13333333,0,0,-0.13333333,0,125.33333)" />
    <path
       id="path6"
       d="m 324.262,635.039 c 0.226,0.699 0.226,0.82 0.226,1.051 0,0.82 -0.699,0.82 -1.519,0.82 l -6.09,-0.461 c -0.938,-0.121 -0.938,-0.121 -1.289,-0.359 -0.121,-0.231 -0.36,-0.82 -0.36,-1.168 0,-0.82 0.821,-0.82 1.532,-0.82 0.117,0 0.937,0 1.758,-0.122 0.929,-0.109 0.929,-0.23 0.929,-0.582 0,-0.117 0,-0.238 -0.23,-1.168 l -6.918,-27.539 c -0.11,-0.711 -0.11,-0.82 -0.11,-1.062 0,-1.168 0.821,-1.867 1.868,-1.867 1.882,0 2.351,1.867 2.582,2.578 l 2.23,9.14 c 1.289,0 7.5,-0.359 7.5,-3.871 0,-0.347 0,-0.589 -0.121,-1.168 -0.121,-0.711 -0.121,-1.062 -0.121,-1.293 0,-3.519 3.172,-5.386 6.101,-5.386 5.04,0 7.032,7.148 7.032,7.726 0,0.711 -0.821,0.711 -1.063,0.711 -0.82,0 -0.929,-0.238 -1.168,-1.179 -0.472,-1.641 -1.992,-5.5 -4.691,-5.5 -1.75,0 -2.11,1.871 -2.11,2.929 0,0 0,0.699 0.239,1.52 0.23,0.82 0.23,1.41 0.23,1.761 0,4.329 -5.5,5.149 -8.789,5.391 1.41,0.82 3.52,2.457 4.34,3.16 2.809,2.231 5.629,4.34 8.441,4.34 1.168,0 1.399,-0.242 1.758,-0.59 -0.121,0 -0.359,-0.121 -0.469,-0.121 -2.23,-0.82 -2.23,-2.808 -2.23,-2.93 0,-0.929 0.59,-2.101 2.23,-2.101 0.93,0 3.04,0.82 3.04,3.512 0,2.461 -1.872,3.988 -4.219,3.988 -3.391,0 -6.321,-2.348 -9.961,-5.277 -1.75,-1.403 -3.391,-2.582 -5.391,-3.403 z"
       style="fill:#000000;fill-opacity:1;fill-rule:nonzero;stroke:none"
       transform="matrix(0.13333333,0,0,-0.13333333,0,125.33333)" />
    <path
       id="path7"
       d="m 349.488,614.609 c -0.226,-0.82 -0.226,-1.058 -0.226,-1.168 0,-1.171 0.937,-1.761 1.867,-1.761 1.062,0 2.109,0.59 2.582,2.23 0.82,3.281 0.348,1.399 1.168,4.68 l 1.172,4.808 c 1.879,-1.168 4.219,-1.519 6.097,-1.519 3.161,0 5.743,1.519 7.973,3.742 0.93,-3.043 4.219,-3.742 5.859,-3.742 1.989,0 3.399,1.172 4.45,2.812 1.289,1.989 1.992,4.571 1.992,4.918 0,0.7 -0.942,0.7 -1.051,0.7 -0.941,0 -0.941,-0.231 -1.293,-1.047 -0.816,-3.75 -2.109,-5.633 -3.867,-5.633 -1.41,0 -1.992,1.062 -1.992,2.582 0,1.059 1.519,7.148 3.511,14.769 0.239,0.821 0.239,0.93 0.239,1.168 0,1.172 -0.938,1.762 -1.879,1.762 -1.988,0 -2.34,-1.64 -2.692,-3.172 -0.589,-2.109 -0.589,-2.218 -1.168,-4.218 -0.468,-2.11 -1.179,-4.801 -1.531,-6.442 -0.347,-1.289 -0.347,-1.406 -1.168,-2.457 -1.64,-2 -3.98,-3.992 -7.152,-3.992 -2.688,0 -4.801,1.062 -4.801,4.57 0,1.18 0.231,2.231 0.582,3.641 0.469,2.219 0.59,2.57 1.059,4.449 l 0.941,3.402 c 0.231,1.047 0.699,2.809 0.699,3.039 0,0.821 -0.699,1.758 -1.879,1.758 -1.992,0 -2.46,-1.867 -2.57,-2.457 z"
       style="fill:#000000;fill-opacity:1;fill-rule:nonzero;stroke:none"
       transform="matrix(0.13333333,0,0,-0.13333333,0,125.33333)" />
    <path
       id="path8"
       d="m 456.641,619.34 c 0.699,0 1.879,0 1.879,1.398 0,1.41 -1.411,1.41 -2.11,1.41 h -37.148 c -0.711,0 -2.231,0 -2.231,-1.41 0,-1.398 1.289,-1.398 1.989,-1.398 z M 456.41,607.5 c 0.699,0 2.11,0 2.11,1.41 0,1.399 -1.18,1.399 -1.879,1.399 H 419.02 c -0.7,0 -1.989,0 -1.989,-1.399 0,-1.41 1.52,-1.41 2.231,-1.41 z m 49.328,31.051 c 0,0 0.242,0.238 0.242,0.469 0,0.242 -0.121,0.71 -0.941,0.71 -0.937,0 -13.711,-7.968 -13.711,-24.96 0,-16.879 12.774,-24.848 13.711,-24.848 0.82,0 0.941,0.469 0.941,0.699 0,0.359 -0.242,0.469 -0.468,0.59 -8.793,7.027 -10.434,17.109 -10.434,23.559 0,12.179 5.742,20.269 10.66,23.781 z"
       style="fill:#000000;fill-opacity:1;fill-rule:nonzero;stroke:none"
       transform="matrix(0.13333333,0,0,-0.13333333,0,125.33333)" />
    <path
       id="path9"
       d="m 517.809,596.48 c -0.348,-1.281 -0.469,-1.519 -2.688,-1.519 -0.711,0 -1.641,0 -1.641,-1.41 0,-0.582 0.469,-0.821 0.821,-0.821 0.82,0 1.64,0.122 2.461,0.122 0.816,0 1.636,0 2.457,0 1.051,0 1.992,0 2.929,0 0.942,0 1.872,-0.122 2.813,-0.122 0.59,0 1.168,0.36 1.168,1.29 0,0.941 -0.82,0.941 -1.52,0.941 -1.64,0 -2.699,0 -2.699,0.59 0,0.23 0.82,3.277 2.231,9.25 1.289,-1.75 3.281,-3.039 5.98,-3.039 7.027,0 14.059,6.91 14.059,13.937 0,4.922 -3.629,8.68 -8.789,8.68 -3.871,0 -6.911,-2.578 -7.852,-3.52 -1.059,2.692 -3.988,3.52 -5.859,3.52 -1.641,0 -3.16,-0.828 -4.45,-2.82 -1.289,-1.989 -1.878,-4.571 -1.878,-4.918 0,-0.7 0.699,-0.7 1.058,-0.7 0.82,0 0.93,0.231 1.051,1.047 0.59,1.992 1.641,5.633 3.988,5.633 1.75,0 1.992,-1.641 1.992,-2.582 0,-0.699 0,-0.937 -0.121,-1.289 z m 9.492,20.75 c 0.121,0.7 0.238,0.821 1.058,1.872 1.993,2.226 4.571,3.519 6.911,3.519 2.109,0 4.46,-1.293 4.46,-5.043 0,-2.226 -1.179,-6.918 -2.582,-9.379 -2.109,-3.629 -5.16,-4.679 -7.027,-4.679 -4.101,0 -5.16,3.98 -5.16,4.449 0,0.23 0.117,0.472 0.117,0.703 z m 33.828,-14.179 c 0,-4.813 -2.578,-7.5 -3.981,-8.672 -0.468,-0.359 -0.589,-0.469 -0.589,-0.828 0,-0.231 0.472,-0.821 0.941,-0.821 0.59,0 5.27,3.872 5.27,10.079 0,3.402 -1.52,5.632 -3.75,5.632 -1.872,0 -3.04,-1.531 -3.04,-3.05 0,-1.641 1.168,-3.051 3.04,-3.051 0.82,0 1.531,0.238 2.109,0.711 z"
       style="fill:#000000;fill-opacity:1;fill-rule:nonzero;stroke:none"
       transform="matrix(0.13333333,0,0,-0.13333333,0,125.33333)" />
    <path
       id="path10"
       d="m 612.578,618.281 c 0,3.629 0,17.231 -12.887,17.231 -13.011,0 -13.011,-13.602 -13.011,-17.231 0,-3.633 0,-16.992 13.011,-16.992 12.887,0 12.887,13.359 12.887,16.992 z M 599.691,602.93 c -1.882,0 -6.101,0.59 -7.39,5.621 -0.582,2.699 -0.699,6.219 -0.699,10.32 0,3.75 0,7.149 0.82,9.957 1.289,4.223 5.039,5.043 7.269,5.043 3.629,0 6.207,-1.883 7.258,-5.391 0.711,-2.582 0.711,-6.679 0.711,-9.609 0,-3.402 0,-7.391 -0.711,-10.43 -1.289,-4.812 -5.269,-5.511 -7.258,-5.511 z"
       style="fill:#000000;fill-opacity:1;fill-rule:nonzero;stroke:none"
       transform="matrix(0.13333333,0,0,-0.13333333,0,125.33333)" />
    <path
       id="path11"
       d="m 630.078,603.051 c 0,-4.813 -2.578,-7.5 -3.988,-8.672 -0.469,-0.359 -0.578,-0.469 -0.578,-0.828 0,-0.231 0.468,-0.821 0.937,-0.821 0.582,0 5.27,3.872 5.27,10.079 0,3.402 -1.52,5.632 -3.75,5.632 -1.879,0 -3.047,-1.531 -3.047,-3.05 0,-1.641 1.168,-3.051 3.047,-3.051 0.82,0 1.519,0.238 2.109,0.711 z"
       style="fill:#000000;fill-opacity:1;fill-rule:nonzero;stroke:none"
       transform="matrix(0.13333333,0,0,-0.13333333,0,125.33333)" />
    <path
       id="path12"
       d="m 681.52,618.281 c 0,3.629 0,17.231 -12.891,17.231 -13.008,0 -13.008,-13.602 -13.008,-17.231 0,-3.633 0,-16.992 13.008,-16.992 12.891,0 12.891,13.359 12.891,16.992 z M 668.629,602.93 c -1.867,0 -6.09,0.59 -7.379,5.621 -0.59,2.699 -0.699,6.219 -0.699,10.32 0,3.75 0,7.149 0.82,9.957 1.289,4.223 5.039,5.043 7.258,5.043 3.641,0 6.211,-1.883 7.269,-5.391 0.704,-2.582 0.704,-6.679 0.704,-9.609 0,-3.402 0,-7.391 -0.704,-10.43 -1.289,-4.812 -5.277,-5.511 -7.269,-5.511 z"
       style="fill:#000000;fill-opacity:1;fill-rule:nonzero;stroke:none"
       transform="matrix(0.13333333,0,0,-0.13333333,0,125.33333)" />
    <path
       id="path13"
       d="m 699.02,603.051 c 0,-4.813 -2.571,-7.5 -3.981,-8.672 -0.469,-0.359 -0.59,-0.469 -0.59,-0.828 0,-0.231 0.473,-0.821 0.942,-0.821 0.589,0 5.269,3.872 5.269,10.079 0,3.402 -1.519,5.632 -3.75,5.632 -1.871,0 -3.039,-1.531 -3.039,-3.05 0,-1.641 1.168,-3.051 3.039,-3.051 0.82,0 1.531,0.238 2.11,0.711 z m 28.601,-6.571 c -0.351,-1.281 -0.473,-1.519 -2.699,-1.519 -0.703,0 -1.641,0 -1.641,-1.41 0,-0.582 0.469,-0.821 0.821,-0.821 0.82,0 1.636,0.122 2.457,0.122 0.82,0 1.64,0 2.461,0 1.058,0 2,0 2.929,0 0.942,0 1.879,-0.122 2.821,-0.122 0.582,0 1.171,0.36 1.171,1.29 0,0.941 -0.82,0.941 -1.531,0.941 -1.64,0 -2.691,0 -2.691,0.59 0,0.23 0.82,3.277 2.23,9.25 1.281,-1.75 3.281,-3.039 5.973,-3.039 7.027,0 14.058,6.91 14.058,13.937 0,4.922 -3.628,8.68 -8.781,8.68 -3.871,0 -6.918,-2.578 -7.859,-3.52 -1.051,2.692 -3.981,3.52 -5.86,3.52 -1.64,0 -3.16,-0.828 -4.449,-2.82 -1.293,-1.989 -1.871,-4.571 -1.871,-4.918 0,-0.7 0.699,-0.7 1.051,-0.7 0.82,0 0.937,0.231 1.059,1.047 0.582,1.992 1.64,5.633 3.98,5.633 1.762,0 1.988,-1.641 1.988,-2.582 0,-0.699 0,-0.937 -0.117,-1.289 z m 9.488,20.75 c 0.121,0.7 0.231,0.821 1.051,1.872 2,2.226 4.57,3.519 6.918,3.519 2.113,0 4.453,-1.293 4.453,-5.043 0,-2.226 -1.172,-6.918 -2.582,-9.379 -2.109,-3.629 -5.148,-4.679 -7.027,-4.679 -4.102,0 -5.152,3.98 -5.152,4.449 0,0.23 0.109,0.472 0.109,0.703 z"
       style="fill:#000000;fill-opacity:1;fill-rule:nonzero;stroke:none"
       transform="matrix(0.13333333,0,0,-0.13333333,0,125.33333)" />
    <path
       id="path14"
       d="m 776.91,614.77 c 0,16.871 -12.769,24.96 -13.82,24.96 -0.711,0 -0.711,-0.589 -0.711,-0.71 0,-0.11 0,-0.348 0.242,-0.7 7.5,-5.859 10.43,-14.531 10.43,-23.55 0,-4.461 -0.821,-9.149 -2.461,-13.25 -2.469,-5.622 -5.512,-8.43 -7.969,-10.43 -0.121,0 -0.242,-0.352 -0.242,-0.469 0,-0.109 0,-0.699 0.711,-0.699 1.051,0 13.82,7.969 13.82,24.848 z"
       style="fill:#000000;fill-opacity:1;fill-rule:nonzero;stroke:none"
       transform="matrix(0.13333333,0,0,-0.13333333,0,125.33333)" />
    <path
       id="path15"
       d="M 781.09,389.531 897.699,111.602"
       style="fill:none;stroke:#bfbfbf;stroke-width:7.9701;stroke-linecap:butt;stroke-linejoin:miter;stroke-miterlimit:10;stroke-dasharray:none;stroke-opacity:1"
       transform="matrix(0.13333333,0,0,-0.13333333,0,125.33333)" />
    <path
       id="path16"
       d="m 835.66,471.84 258.4,0.582"
       style="fill:none;stroke:#bfbfbf;stroke-width:7.9701;stroke-linecap:butt;stroke-linejoin:miter;stroke-miterlimit:10;stroke-dasharray:none;stroke-opacity:1"
       transform="matrix(0.13333333,0,0,-0.13333333,0,125.33333)" />
    <path
       id="path17"
       d="m 781.211,553.711 116.988,277.66"
       style="fill:none;stroke:#bfbfbf;stroke-width:7.9701;stroke-linecap:butt;stroke-linejoin:miter;stroke-miterlimit:10;stroke-dasharray:none;stroke-opacity:1"
       transform="matrix(0.13333333,0,0,-0.13333333,0,125.33333)" />
    <path
       id="path18"
       d="m 45.8984,790.078 c 0,5.742 -3.9882,13.363 -18.8671,13.363 -10.7813,0 -16.8711,-6.8 -16.8711,-13.242 0,-3.398 2.2187,-4.808 4.5703,-4.808 2.8086,0 4.5703,1.988 4.5703,4.687 0,4.453 -4.2227,4.453 -5.6289,4.453 3.1679,5.27 8.9062,6.797 13.1289,6.797 10.7773,0 10.7773,-6.797 10.7773,-10.668 0,-5.969 -1.5273,-7.73 -3.3984,-9.488 -6.5586,-7.152 -8.668,-16.402 -8.668,-22.383 v -4.57 c 0,-1.758 0,-2.34 1.168,-2.34 1.2891,0 1.2891,0.93 1.2891,2.691 v 3.52 c 0,12.531 9.6093,19.57 13.121,22.14 2.6993,2 4.8086,5.629 4.8086,9.848 z M 31.9492,738.52 c 0,2.929 -2.4609,5.269 -5.2695,5.269 -2.9297,0 -5.2695,-2.34 -5.2695,-5.269 0,-2.93 2.3398,-5.282 5.2695,-5.282 2.8086,0 5.2695,2.352 5.2695,5.282 z"
       style="fill:#bfbfbf;fill-opacity:1;fill-rule:nonzero;stroke:none"
       transform="matrix(0.13333333,0,0,-0.13333333,0,125.33333)" />
    <path
       id="path19"
       d="m 428.828,471.641 c 0,46.988 -38.09,85.078 -85.039,85.078 -46.949,0 -85.039,-38.09 -85.039,-85.078 0,-46.95 38.09,-85.039 85.039,-85.039 46.949,0 85.039,38.089 85.039,85.039 z"
       style="fill:url(#pattern20);fill-opacity:1;fill-rule:nonzero;stroke:#bfbfbf;stroke-width:7.9701;stroke-linecap:butt;stroke-linejoin:miter;stroke-miterlimit:10;stroke-dasharray:none;stroke-opacity:1"
       transform="matrix(0.13333333,0,0,-0.13333333,0,125.33333)" />
    <path
       id="path21"
       d="m 44.6094,200.039 c 0,5.742 -3.9883,13.359 -18.8711,13.359 -10.7774,0 -16.86721,-6.796 -16.86721,-13.238 0,-3.398 2.21871,-4.808 4.57031,-4.808 2.8086,0 4.5703,1.988 4.5703,4.687 0,4.449 -4.2226,4.449 -5.6328,4.449 3.1719,5.282 8.9102,6.801 13.1328,6.801 10.7774,0 10.7774,-6.801 10.7774,-10.668 0,-5.973 -1.5196,-7.73 -3.3985,-9.492 -6.5625,-7.149 -8.6718,-16.399 -8.6718,-22.379 v -4.57 c 0,-1.758 0,-2.34 1.1718,-2.34 1.2891,0 1.2891,0.93 1.2891,2.691 v 3.52 c 0,12.539 9.6094,19.57 13.1211,22.148 2.6992,1.992 4.8086,5.621 4.8086,9.84 z M 30.6602,148.48 c 0,2.93 -2.461,5.27 -5.2696,5.27 -2.9297,0 -5.2695,-2.34 -5.2695,-5.27 0,-2.929 2.3398,-5.281 5.2695,-5.281 2.8086,0 5.2696,2.352 5.2696,5.281 z"
       style="fill:#bfbfbf;fill-opacity:1;fill-rule:nonzero;stroke:none"
       transform="matrix(0.13333333,0,0,-0.13333333,0,125.33333)" />
    <path
       id="path22"
       d="m 831.68,471.641 c 0,46.988 -38.09,85.078 -85.078,85.078 -46.954,0 -85.043,-38.09 -85.043,-85.078 0,-46.95 38.089,-85.039 85.043,-85.039 46.988,0 85.078,38.089 85.078,85.039 z"
       style="fill:url(#pattern23);fill-opacity:1;fill-rule:nonzero;stroke:#bfbfbf;stroke-width:7.9701;stroke-linecap:butt;stroke-linejoin:miter;stroke-miterlimit:10;stroke-dasharray:none;stroke-opacity:1"
       transform="matrix(0.13333333,0,0,-0.13333333,0,125.33333)" />
    <path
       id="path24"
       d="m 945.078,63.0117 c 0,5.7383 -3.988,13.3594 -18.867,13.3594 -10.781,0 -16.871,-6.8008 -16.871,-13.25 0,-3.3906 2.219,-4.8008 4.57,-4.8008 2.809,0 4.57,1.9883 4.57,4.6914 0,4.4492 -4.218,4.4492 -5.628,4.4492 3.168,5.2696 8.91,6.8008 13.128,6.8008 10.782,0 10.782,-6.8008 10.782,-10.6719 0,-5.9687 -1.532,-7.7304 -3.403,-9.4882 -6.558,-7.1524 -8.668,-16.4024 -8.668,-22.3828 v -4.5704 c 0,-1.7578 0,-2.3476 1.168,-2.3476 1.289,0 1.289,0.9375 1.289,2.6992 v 3.5195 c 0,12.5313 9.614,19.5703 13.122,22.1407 2.699,2 4.808,5.6289 4.808,9.8515 z M 931.129,11.4492 c 0,2.9297 -2.457,5.2696 -5.27,5.2696 -2.929,0 -5.269,-2.3399 -5.269,-5.2696 0,-2.92967 2.34,-5.27732 5.269,-5.27732 2.813,0 5.27,2.34765 5.27,5.27732 z"
       style="fill:#bfbfbf;fill-opacity:1;fill-rule:nonzero;stroke:none"
       transform="matrix(0.13333333,0,0,-0.13333333,0,125.33333)" />
    <path
       id="path25"
       d="m 1170.62,494.301 c 0,5.738 -3.98,13.359 -18.86,13.359 -10.78,0 -16.88,-6.801 -16.88,-13.25 0,-3.39 2.23,-4.801 4.57,-4.801 2.82,0 4.57,1.993 4.57,4.692 0,4.449 -4.22,4.449 -5.62,4.449 3.16,5.27 8.9,6.801 13.12,6.801 10.78,0 10.78,-6.801 10.78,-10.672 0,-5.969 -1.52,-7.731 -3.39,-9.488 -6.57,-7.153 -8.68,-16.411 -8.68,-22.379 v -4.571 c 0,-1.761 0,-2.351 1.18,-2.351 1.29,0 1.29,0.941 1.29,2.699 v 3.512 c 0,12.539 9.6,19.578 13.12,22.148 2.7,2 4.8,5.629 4.8,9.852 z m -13.94,-51.571 c 0,2.93 -2.46,5.282 -5.27,5.282 -2.93,0 -5.28,-2.352 -5.28,-5.282 0,-2.929 2.35,-5.269 5.28,-5.269 2.81,0 5.27,2.34 5.27,5.269 z"
       style="fill:#bfbfbf;fill-opacity:1;fill-rule:nonzero;stroke:none"
       transform="matrix(0.13333333,0,0,-0.13333333,0,125.33333)" />
    <path
       id="path26"
       d="m 945.699,923.398 c 0,5.743 -3.98,13.364 -18.859,13.364 -10.789,0 -16.879,-6.801 -16.879,-13.242 0,-3.399 2.23,-4.809 4.57,-4.809 2.809,0 4.571,1.988 4.571,4.687 0,4.454 -4.223,4.454 -5.622,4.454 3.161,5.269 8.899,6.796 13.122,6.796 10.777,0 10.777,-6.796 10.777,-10.668 0,-5.968 -1.52,-7.73 -3.399,-9.492 -6.558,-7.148 -8.671,-16.398 -8.671,-22.379 v -4.57 c 0,-1.758 0,-2.34 1.171,-2.34 1.29,0 1.29,0.93 1.29,2.692 v 3.519 c 0,12.539 9.609,19.57 13.128,22.141 2.692,2 4.801,5.629 4.801,9.847 z M 931.762,871.84 c 0,2.93 -2.461,5.269 -5.282,5.269 -2.929,0 -5.269,-2.339 -5.269,-5.269 0,-2.93 2.34,-5.281 5.269,-5.281 2.821,0 5.282,2.351 5.282,5.281 z"
       style="fill:#bfbfbf;fill-opacity:1;fill-rule:nonzero;stroke:none"
       transform="matrix(0.13333333,0,0,-0.13333333,0,125.33333)" />
  </g>
</svg>
